<svg width="100" height="82" viewBox="0 0 100 82" fill="none" xmlns="http://www.w3.org/2000/svg">
<path d="M29.6875 47.375C29.6875 58.5938 38.7812 67.6875 50 67.6875C61.2188 67.6875 70.3125 58.5938 70.3125 47.375C70.3125 36.1562 61.2188 27.0625 50 27.0625C38.7812 27.0625 29.6875 36.1562 29.6875 47.375ZM93.75 13H71.875C70.3125 6.75 68.75 0.5 62.5 0.5H37.5C31.25 0.5 29.6875 6.75 28.125 13H6.25C2.8125 13 0 15.8125 0 19.25V75.5C0 78.9375 2.8125 81.75 6.25 81.75H93.75C97.1875 81.75 100 78.9375 100 75.5V19.25C100 15.8125 97.1875 13 93.75 13ZM50 75.1094C34.6813 75.1094 22.2656 62.6937 22.2656 47.375C22.2656 32.0562 34.6813 19.6406 50 19.6406C65.3187 19.6406 77.7344 32.0562 77.7344 47.375C77.7344 62.6937 65.3187 75.1094 50 75.1094ZM93.75 31.75H81.25V25.5H93.75V31.75Z" fill="#A5A2A2"/>
</svg>
