<svg width="50" height="50" viewBox="0 0 50 50" fill="none" xmlns="http://www.w3.org/2000/svg">
<g clip-path="url(#clip0_6_216)">
<path d="M25 0C11.1922 0 0 3.49844 0 7.8125V14.0625C0 18.3766 11.1922 21.875 25 21.875C38.8078 21.875 50 18.3766 50 14.0625V7.8125C50 3.49844 38.8078 0 25 0Z" fill="#D5F50E"/>
<path d="M25 26.5625C11.1922 26.5625 0 23.0641 0 18.75V28.125C0 32.4391 11.1922 35.9375 25 35.9375C38.8078 35.9375 50 32.4391 50 28.125V18.75C50 23.0641 38.8078 26.5625 25 26.5625Z" fill="#D5F50E"/>
<path d="M25 40.625C11.1922 40.625 0 37.1266 0 32.8125V42.1875C0 46.5016 11.1922 50 25 50C38.8078 50 50 46.5016 50 42.1875V32.8125C50 37.1266 38.8078 40.625 25 40.625Z" fill="#D5F50E"/>
</g>
<defs>
<clipPath id="clip0_6_216">
<rect width="50" height="50" fill="white"/>
</clipPath>
</defs>
</svg>
