<svg width="75" height="75" viewBox="0 0 75 75" fill="none" xmlns="http://www.w3.org/2000/svg">
<path d="M63.3281 34.6547C58.5117 21.2203 48.3047 9.15469 37.5 0C26.6953 9.15703 16.4883 21.2203 11.6719 34.6547C8.69297 42.9633 8.4 51.982 12.593 59.9531C17.4164 69.1195 27.1406 75 37.4977 75C47.8547 75 57.5812 69.1195 62.4023 59.9531C66.5977 51.982 66.3023 42.9633 63.3234 34.6547H63.3281ZM54.1078 55.5867C50.8992 61.6852 44.3812 65.625 37.5 65.625C33.4617 65.625 29.5523 64.268 26.3602 61.9148C27.3305 62.0414 28.3102 62.1094 29.2992 62.1094C37.9008 62.1094 46.0477 57.1875 50.0555 49.568C53.3414 43.3219 53.0578 36.8344 51.8039 31.6711C52.8703 33.7336 53.775 35.7867 54.5016 37.8187C56.1562 42.4383 57.4336 49.2703 54.1078 55.5867Z" fill="#FFCB11"/>
</svg>
