<svg width="75" height="75" viewBox="0 0 75 75" fill="none" xmlns="http://www.w3.org/2000/svg">
<g clip-path="url(#clip0_6_313)">
<path d="M23.5102 74.9999C18.5109 64.5983 21.1734 58.6382 25.0148 53.0249C29.2219 46.8749 30.307 40.7882 30.307 40.7882C30.307 40.7882 33.6141 45.0866 32.2922 51.8108C38.1351 45.3069 39.2367 34.9452 38.3555 30.9772C51.5625 40.2069 57.2062 60.1897 49.6008 74.9999C90.0586 52.1085 59.6648 17.8593 54.3727 13.9991C56.1375 17.8569 56.4703 24.389 52.9078 27.5577C46.8773 4.68506 31.9617 -0.00244141 31.9617 -0.00244141C33.7266 11.7937 25.568 24.6913 17.7023 34.3288C17.4258 29.6249 17.1328 26.3788 14.6602 21.8788C14.1047 30.4241 7.57499 37.3874 5.80781 45.9491C3.41249 57.5413 7.60078 66.0304 23.5148 74.9976L23.5102 74.9999Z" fill="#5D11FF"/>
</g>
<defs>
<clipPath id="clip0_6_313">
<rect width="75" height="75" fill="white"/>
</clipPath>
</defs>
</svg>
