<svg width="50" height="50" viewBox="0 0 50 50" fill="none" xmlns="http://www.w3.org/2000/svg">
<path d="M46.8688 6.25C46.8703 6.25156 46.8734 6.25313 46.875 6.25625V43.7453C46.8734 43.7469 46.8719 43.75 46.8688 43.7516H3.12969C3.12812 43.75 3.125 43.7484 3.12344 43.7453V6.25625C3.125 6.25469 3.12656 6.25156 3.12969 6.25H46.8688ZM46.875 3.125H3.125C1.40625 3.125 0 4.53125 0 6.25V43.75C0 45.4688 1.40625 46.875 3.125 46.875H46.875C48.5938 46.875 50 45.4688 50 43.75V6.25C50 4.53125 48.5938 3.125 46.875 3.125Z" fill="#FEFEFE"/>
<path d="M40.625 14.0625C40.625 16.6516 38.5266 18.75 35.9375 18.75C33.3484 18.75 31.25 16.6516 31.25 14.0625C31.25 11.4734 33.3484 9.375 35.9375 9.375C38.5266 9.375 40.625 11.4734 40.625 14.0625Z" fill="#FEFEFE"/>
<path d="M43.75 40.625H6.25V34.375L17.1875 15.625L29.6875 31.25H32.8125L43.75 21.875V40.625Z" fill="#FEFEFE"/>
</svg>
