<svg width="50" height="50" viewBox="0 0 50 50" fill="none" xmlns="http://www.w3.org/2000/svg">
<g clip-path="url(#clip0_5_54)">
<path d="M12.5 9.375L6.25 3.125H3.125V6.25L9.375 12.5L12.5 9.375ZM15.625 0H18.75V6.25H15.625V0ZM28.125 15.625H34.375V18.75H28.125V15.625ZM31.25 6.25V3.125H28.125L21.875 9.375L25 12.5L31.25 6.25ZM0 15.625H6.25V18.75H0V15.625ZM15.625 28.125H18.75V34.375H15.625V28.125ZM3.125 28.125V31.25H6.25L12.5 25L9.375 21.875L3.125 28.125ZM49.3172 43.0672L18.2563 12.0063C17.3453 11.0953 15.8531 11.0953 14.9422 12.0063L12.0063 14.9422C11.0953 15.8531 11.0953 17.3453 12.0063 18.2563L43.0672 49.3172C43.9781 50.2281 45.4703 50.2281 46.3812 49.3172L49.3172 46.3812C50.2281 45.4703 50.2281 43.9781 49.3172 43.0672ZM23.4375 26.5625L14.0625 17.1875L17.1875 14.0625L26.5625 23.4375L23.4375 26.5625Z" fill="black"/>
</g>
<defs>
<clipPath id="clip0_5_54">
<rect width="50" height="50" fill="white"/>
</clipPath>
</defs>
</svg>
