<svg width="50" height="50" viewBox="0 0 50 50" fill="none" xmlns="http://www.w3.org/2000/svg">
<g clip-path="url(#clip0_5_52)">
<path d="M25 0C11.3891 0 0.31875 10.8766 0.0078125 24.4125C0.296875 12.6031 9.27656 3.125 20.3125 3.125C31.5312 3.125 40.625 12.9187 40.625 25C40.625 27.5891 42.7234 29.6875 45.3125 29.6875C47.9016 29.6875 50 27.5891 50 25C50 11.1922 38.8078 0 25 0ZM25 50C38.6109 50 49.6813 39.1234 49.9922 25.5875C49.7031 37.3969 40.7234 46.875 29.6875 46.875C18.4688 46.875 9.375 37.0812 9.375 25C9.375 22.4109 7.27656 20.3125 4.6875 20.3125C2.09844 20.3125 0 22.4109 0 25C0 38.8078 11.1922 50 25 50Z" fill="#04F548"/>
</g>
<defs>
<clipPath id="clip0_5_52">
<rect width="50" height="50" fill="white"/>
</clipPath>
</defs>
</svg>
