<svg width="75" height="75" viewBox="0 0 75 75" fill="none" xmlns="http://www.w3.org/2000/svg">
<g clip-path="url(#clip0_6_315)">
<path d="M37.5 60.9375C40.0898 60.9375 42.1875 63.0352 42.1875 65.625V70.3125C42.1875 72.9023 40.0898 75 37.5 75C34.9102 75 32.8125 72.9023 32.8125 70.3125V65.625C32.8125 63.0352 34.9102 60.9375 37.5 60.9375ZM37.5 14.0625C34.9102 14.0625 32.8125 11.9648 32.8125 9.375V4.6875C32.8125 2.09766 34.9102 0 37.5 0C40.0898 0 42.1875 2.09766 42.1875 4.6875V9.375C42.1875 11.9648 40.0898 14.0625 37.5 14.0625ZM70.3125 32.8125C72.9023 32.8125 75 34.9102 75 37.5C75 40.0898 72.9023 42.1875 70.3125 42.1875H65.625C63.0352 42.1875 60.9375 40.0898 60.9375 37.5C60.9375 34.9102 63.0352 32.8125 65.625 32.8125H70.3125ZM14.0625 37.5C14.0625 40.0898 11.9648 42.1875 9.375 42.1875H4.6875C2.09766 42.1875 0 40.0898 0 37.5C0 34.9102 2.09766 32.8125 4.6875 32.8125H9.375C11.9648 32.8125 14.0625 34.9102 14.0625 37.5ZM60.7008 54.0727L64.0148 57.3867C65.8453 59.2172 65.8453 62.1844 64.0148 64.0148C62.1844 65.8453 59.2172 65.8453 57.3867 64.0148L54.0727 60.7008C52.2422 58.8703 52.2422 55.9031 54.0727 54.0727C55.9031 52.2422 58.8703 52.2422 60.7008 54.0727ZM14.2992 20.9273L10.9852 17.6133C9.15469 15.7828 9.15469 12.8156 10.9852 10.9852C12.8156 9.15469 15.7828 9.15469 17.6133 10.9852L20.9273 14.2992C22.7578 16.1297 22.7578 19.0969 20.9273 20.9273C19.0969 22.7578 16.1297 22.7578 14.2992 20.9273ZM60.7008 20.9273C58.8703 22.7578 55.9031 22.7578 54.0727 20.9273C52.2422 19.0969 52.2422 16.1297 54.0727 14.2992L57.3867 10.9852C59.2172 9.15469 62.1844 9.15469 64.0148 10.9852C65.8453 12.8156 65.8453 15.7828 64.0148 17.6133L60.7008 20.9273ZM14.2992 54.0727C16.1297 52.2422 19.0969 52.2422 20.9273 54.0727C22.7578 55.9031 22.7578 58.8703 20.9273 60.7008L17.6133 64.0148C15.7828 65.8453 12.8156 65.8453 10.9852 64.0148C9.15469 62.1844 9.15469 59.2172 10.9852 57.3867L14.2992 54.0727Z" fill="#11FF9B"/>
<path d="M37.5 18.75C27.1453 18.75 18.75 27.1453 18.75 37.5C18.75 47.8547 27.1453 56.25 37.5 56.25C47.8547 56.25 56.25 47.8547 56.25 37.5C56.25 27.1453 47.8547 18.75 37.5 18.75ZM37.5 49.2188C31.0289 49.2188 25.7812 43.9711 25.7812 37.5C25.7812 31.0289 31.0289 25.7812 37.5 25.7812C43.9711 25.7812 49.2188 31.0289 49.2188 37.5C49.2188 43.9711 43.9711 49.2188 37.5 49.2188Z" fill="#11FF9B"/>
</g>
<defs>
<clipPath id="clip0_6_315">
<rect width="75" height="75" fill="white"/>
</clipPath>
</defs>
</svg>
